<svg xmlns="http://www.w3.org/2000/svg" role="img" aria-label="統計標籤判斷(偵查類)工作流程圖 V17.04" viewBox="90 7 2910 2043" width="2910" height="2043" font-family="Microsoft JhengHei, PingFang TC, Noto Sans CJK TC, sans-serif">
<title>統計標籤判斷(偵查類)工作流程圖 V17.04</title>
<rect x="90" y="7" width="2910" height="2043" fill="#ffffff"/>
<text x="140" y="50" font-size="19" font-weight="bold" fill="#1f2d3d">統計標籤判斷(偵查類)工作流程圖 V17.04</text>
<defs><marker id="arr" markerWidth="9" markerHeight="9" refX="7" refY="3" orient="auto" markerUnits="strokeWidth"><path d="M0,0 L8,3 L0,6 Z" fill="#5a6b7b"/></marker><marker id="mfarr" markerWidth="11" markerHeight="11" refX="8" refY="4" orient="auto" markerUnits="strokeWidth"><path d="M0,0 L8,4 L0,8" fill="none" stroke="#6b7b8b" stroke-width="1.3"/></marker><marker id="mfdot" markerWidth="10" markerHeight="10" refX="5" refY="5" orient="auto" markerUnits="strokeWidth"><circle cx="5" cy="5" r="3.2" fill="#fff" stroke="#6b7b8b" stroke-width="1.3"/></marker></defs>
<rect x="140" y="70" width="490" height="1956" fill="none" stroke="#9aa7b4" stroke-width="1.5"/>
<rect x="140" y="70" width="30" height="1956" fill="#e7edf3" stroke="#9aa7b4"/>
<text x="158" y="1048.0" font-size="13" font-weight="bold" fill="#3a4a59" text-anchor="middle" transform="rotate(-90 158 1048.0)">檢察書類製作系統</text>
<rect x="170" y="70" width="460" height="1956" fill="none" stroke="#cdd6df"/>
<rect x="170" y="70" width="460" height="36" fill="#eef2f6" stroke="#cdd6df"/>
<text x="400.0" y="93" font-size="13.5" font-weight="bold" fill="#3a4a59" text-anchor="middle">檢察官</text>
<rect x="720" y="70" width="490" height="1956" fill="none" stroke="#9aa7b4" stroke-width="1.5"/>
<rect x="720" y="70" width="30" height="1956" fill="#e7edf3" stroke="#9aa7b4"/>
<text x="738" y="1048.0" font-size="13" font-weight="bold" fill="#3a4a59" text-anchor="middle" transform="rotate(-90 738 1048.0)">小腦</text>
<rect x="750" y="70" width="460" height="1956" fill="none" stroke="#cdd6df"/>
<rect x="750" y="70" width="460" height="36" fill="#eef2f6" stroke="#cdd6df"/>
<text x="980.0" y="93" font-size="13.5" font-weight="bold" fill="#3a4a59" text-anchor="middle">SFTP</text>
<rect x="1300" y="70" width="490" height="1956" fill="none" stroke="#9aa7b4" stroke-width="1.5"/>
<rect x="1300" y="70" width="30" height="1956" fill="#e7edf3" stroke="#9aa7b4"/>
<text x="1318" y="1048.0" font-size="13" font-weight="bold" fill="#3a4a59" text-anchor="middle" transform="rotate(-90 1318 1048.0)">AI智慧輔助系統</text>
<rect x="1330" y="70" width="460" height="1956" fill="none" stroke="#cdd6df"/>
<rect x="1330" y="70" width="460" height="36" fill="#eef2f6" stroke="#cdd6df"/>
<text x="1560.0" y="93" font-size="13.5" font-weight="bold" fill="#3a4a59" text-anchor="middle">系統</text>
<rect x="1880" y="70" width="490" height="1956" fill="none" stroke="#9aa7b4" stroke-width="1.5"/>
<rect x="1880" y="70" width="30" height="1956" fill="#e7edf3" stroke="#9aa7b4"/>
<text x="1898" y="1048.0" font-size="13" font-weight="bold" fill="#3a4a59" text-anchor="middle" transform="rotate(-90 1898 1048.0)">大腦</text>
<rect x="1910" y="70" width="460" height="1956" fill="none" stroke="#cdd6df"/>
<rect x="1910" y="70" width="460" height="36" fill="#eef2f6" stroke="#cdd6df"/>
<text x="2140.0" y="93" font-size="13.5" font-weight="bold" fill="#3a4a59" text-anchor="middle">SFTP</text>
<rect x="2460" y="70" width="490" height="1956" fill="none" stroke="#9aa7b4" stroke-width="1.5"/>
<rect x="2460" y="70" width="30" height="1956" fill="#e7edf3" stroke="#9aa7b4"/>
<text x="2478" y="1048.0" font-size="13" font-weight="bold" fill="#3a4a59" text-anchor="middle" transform="rotate(-90 2478 1048.0)">刑案管理系統</text>
<rect x="2490" y="70" width="460" height="1956" fill="none" stroke="#cdd6df"/>
<rect x="2490" y="70" width="460" height="36" fill="#eef2f6" stroke="#cdd6df"/>
<text x="2720.0" y="93" font-size="13.5" font-weight="bold" fill="#3a4a59" text-anchor="middle">使用者</text>
<path d="M285,185 L285,253" fill="none" stroke="#5a6b7b" stroke-width="1.6" marker-end="url(#arr)"/>
<path d="M285,319 L285,373" fill="none" stroke="#5a6b7b" stroke-width="1.6" marker-end="url(#arr)"/>
<path d="M285,439 L285,493" fill="none" stroke="#5a6b7b" stroke-width="1.6" marker-end="url(#arr)"/>
<path d="M285,559 L285,627" fill="none" stroke="#5a6b7b" stroke-width="1.6" marker-end="url(#arr)"/>
<path d="M494,526 L364,526" fill="none" stroke="#8a99a8" stroke-width="1.4" stroke-dasharray="2,4"/>
<path d="M515,456 L515,469 L299,469 L299,493" fill="none" stroke="#8a99a8" stroke-width="1.4" stroke-dasharray="2,4"/>
<path d="M994,737 L994,671" fill="none" stroke="#8a99a8" stroke-width="1.4" stroke-dasharray="2,4"/>
<path d="M1445,545 L1445,613" fill="none" stroke="#5a6b7b" stroke-width="1.6" marker-end="url(#arr)"/>
<path d="M1445,679 L1445,733" fill="none" stroke="#5a6b7b" stroke-width="1.6" marker-end="url(#arr)"/>
<path d="M1445,799 L1445,853" fill="none" stroke="#5a6b7b" stroke-width="1.6" marker-end="url(#arr)"/>
<path d="M1445,919 L1445,987" fill="none" stroke="#5a6b7b" stroke-width="1.6" marker-end="url(#arr)"/>
<path d="M1445,185 L1445,253" fill="none" stroke="#5a6b7b" stroke-width="1.6" marker-end="url(#arr)"/>
<path d="M1445,319 L1445,387" fill="none" stroke="#5a6b7b" stroke-width="1.6" marker-end="url(#arr)"/>
<path d="M1524,886 L1654,886" fill="none" stroke="#8a99a8" stroke-width="1.4" stroke-dasharray="2,4"/>
<path d="M1675,830 L1675,842 L1459,842 L1459,853" fill="none" stroke="#8a99a8" stroke-width="1.4" stroke-dasharray="2,4"/>
<path d="M2605,1025 L2605,1093" fill="none" stroke="#5a6b7b" stroke-width="1.6" marker-end="url(#arr)"/>
<path d="M2605,1159 L2605,1213" fill="none" stroke="#5a6b7b" stroke-width="1.6" marker-end="url(#arr)"/>
<path d="M2605,1279 L2605,1333" fill="none" stroke="#5a6b7b" stroke-width="1.6" marker-end="url(#arr)"/>
<path d="M2605,1399 L2605,1453" fill="none" stroke="#5a6b7b" stroke-width="1.6" marker-end="url(#arr)"/>
<path d="M2605,1519 L2605,1573" fill="none" stroke="#5a6b7b" stroke-width="1.6" marker-end="url(#arr)"/>
<path d="M2605,1639 L2605,1700" fill="none" stroke="#5a6b7b" stroke-width="1.6" marker-end="url(#arr)"/>
<path d="M2579,1726 L2504,1726 L2504,1966 L2586,1966" fill="none" stroke="#5a6b7b" stroke-width="1.6" marker-end="url(#arr)"/>
<rect x="2496.25" y="1707.0" width="68" height="21" fill="#fff" stroke="#cdd6df" rx="3"/>
<text x="2530.25" y="1722.0" font-size="12.5" fill="#b0451f" text-anchor="middle" font-weight="bold">引用→否</text>
<path d="M2631,1726 L2835,1726 L2835,1813" fill="none" stroke="#5a6b7b" stroke-width="1.6" marker-end="url(#arr)"/>
<rect x="2729.6" y="1707.0" width="68" height="21" fill="#fff" stroke="#cdd6df" rx="3"/>
<text x="2763.6" y="1722.0" font-size="12.5" fill="#b0451f" text-anchor="middle" font-weight="bold">引用→是</text>
<path d="M2835,1879 L2835,1966 L2624,1966" fill="none" stroke="#5a6b7b" stroke-width="1.6" marker-end="url(#arr)"/>
<path d="M2835,1635 L2835,1676 L2619,1676 L2619,1700" fill="none" stroke="#8a99a8" stroke-width="1.4" stroke-dasharray="2,4"/>
<polyline points="304,646 628,646 628,646 952,646" fill="none" stroke="#6b7b8b" stroke-width="1.4" stroke-dasharray="6 4" marker-start="url(#mfdot)" marker-end="url(#mfarr)"/>
<rect x="414.6" y="630.0" width="16" height="11" fill="#ffffff" stroke="#6b7b8b" stroke-width="1.2"/>
<path d="M414.6,630.0 L422.6,636.0 L430.6,630.0" fill="none" stroke="#6b7b8b" stroke-width="1.2"/>
<rect x="430.6" y="628.0" width="168" height="19" fill="#fff" stroke="#d7dee6" rx="3"/>
<text x="514.6" y="642.0" font-size="11.5" fill="#52606d" text-anchor="middle">書類PDF拋轉至SFTP</text>
<polyline points="1008,646 1187,646 1187,646 1366,646" fill="none" stroke="#6b7b8b" stroke-width="1.4" stroke-dasharray="6 4" marker-start="url(#mfdot)" marker-end="url(#mfarr)"/>
<rect x="1011.3499999999999" y="630.0" width="16" height="11" fill="#ffffff" stroke="#6b7b8b" stroke-width="1.2"/>
<path d="M1011.3499999999999,630.0 L1019.3499999999999,636.0 L1027.35,630.0" fill="none" stroke="#6b7b8b" stroke-width="1.2"/>
<rect x="1027.35" y="628.0" width="194" height="19" fill="#fff" stroke="#d7dee6" rx="3"/>
<text x="1124.35" y="642.0" font-size="11.5" fill="#52606d" text-anchor="middle">AI排程撈取、下載書類PDF</text>
<polyline points="1464,1006 2025,1006 2025,1006 2586,1006" fill="none" stroke="#6b7b8b" stroke-width="1.4" stroke-dasharray="6 4" marker-start="url(#mfdot)" marker-end="url(#mfarr)"/>
<rect x="1709.15" y="990.0" width="16" height="11" fill="#ffffff" stroke="#6b7b8b" stroke-width="1.2"/>
<path d="M1709.15,990.0 L1717.15,996.0 L1725.15,990.0" fill="none" stroke="#6b7b8b" stroke-width="1.2"/>
<rect x="1725.15" y="988.0" width="207" height="19" fill="#fff" stroke="#d7dee6" rx="3"/>
<text x="1828.65" y="1002.0" font-size="11.5" fill="#52606d" text-anchor="middle">判讀結果寫入刑案管理系統暫存區</text>
<polyline points="2112,286 1818,286 1818,286 1524,286" fill="none" stroke="#6b7b8b" stroke-width="1.4" stroke-dasharray="6 4" marker-start="url(#mfdot)" marker-end="url(#mfarr)"/>
<rect x="1827.4" y="270.0" width="16" height="11" fill="#ffffff" stroke="#6b7b8b" stroke-width="1.2"/>
<path d="M1827.4,270.0 L1835.4,276.0 L1843.4,270.0" fill="none" stroke="#6b7b8b" stroke-width="1.2"/>
<rect x="1843.4" y="268.0" width="155" height="19" fill="#fff" stroke="#d7dee6" rx="3"/>
<text x="1920.9" y="282.0" font-size="11.5" fill="#52606d" text-anchor="middle">部頒代碼表、法條對照表</text>
<circle cx="285.0" cy="166.0" r="19.0" fill="#f8cecc" stroke="#b85450" stroke-width="1.8"/>
<text x="285.0" y="197" font-size="11.5" fill="#2a3a49" text-anchor="middle">開始</text>
<rect x="206" y="253" width="158" height="66" rx="8" fill="#d5e8d4" stroke="#82b366" stroke-width="1.5"/>
<circle cx="218" cy="263" r="3.2" fill="none" stroke="#82b366" stroke-width="1.3"/>
<path d="M213,272 Q218,266 223,272" fill="none" stroke="#82b366" stroke-width="1.3"/>
<text x="285.0" y="290.0" font-size="12.5" fill="#1f2d3d" text-anchor="middle">完成起訴書或不起訴書</text>
<rect x="206" y="373" width="158" height="66" rx="8" fill="#d5e8d4" stroke="#82b366" stroke-width="1.5"/>
<circle cx="218" cy="383" r="3.2" fill="none" stroke="#82b366" stroke-width="1.3"/>
<path d="M213,392 Q218,386 223,392" fill="none" stroke="#82b366" stroke-width="1.3"/>
<text x="285.0" y="402.5" font-size="12.5" fill="#1f2d3d" text-anchor="middle">執行列印或儲存
(書類</text>
<text x="285.0" y="417.5" font-size="12.5" fill="#1f2d3d" text-anchor="middle">列印+核章欄)</text>
<rect x="206" y="493" width="158" height="66" rx="8" fill="#dae8fc" stroke="#6c8ebf" stroke-width="1.5"/>
<circle cx="218" cy="504" r="4" fill="none" stroke="#6c8ebf" stroke-width="1.3"/>
<path d="M218,504 l6.5,0.0 M218,504 l-6.5,0.0 M218,504 l0.0,6.5 M218,504 l0.0,-6.5 M218,504 l4.5954999999999995,4.5954999999999995 M218,504 l-4.5954999999999995,4.5954999999999995 M218,504 l4.5954999999999995,-4.5954999999999995 M218,504 l-4.5954999999999995,-4.5954999999999995 " stroke="#6c8ebf" stroke-width="1.3" fill="none"/>
<text x="285.0" y="522.5" font-size="12.5" fill="#1f2d3d" text-anchor="middle">產製書類PDF並拋轉至</text>
<text x="285.0" y="537.5" font-size="12.5" fill="#1f2d3d" text-anchor="middle">SFTP</text>
<circle cx="285.0" cy="646.0" r="19.0" fill="#f8cecc" stroke="#b85450" stroke-width="3.2"/>
<text x="285.0" y="677" font-size="11.5" fill="#2a3a49" text-anchor="middle">書類PDF拋</text>
<text x="285.0" y="690" font-size="11.5" fill="#2a3a49" text-anchor="middle">轉SFTP</text>
<path d="M494,500 L526,500 L536,510 L536,552 L494,552 Z" fill="#ffffff" stroke="#5a6b7b" stroke-width="1.4"/>
<path d="M526,500 L526,510 L536,510" fill="none" stroke="#5a6b7b" stroke-width="1.4"/>
<path d="M501,513 L511,513 L511,509 L518,515 L511,521 L511,517 L501,517 Z" fill="none" stroke="#5a6b7b" stroke-width="1.2"/>
<text x="515.0" y="564" font-size="11.5" fill="#2a3a49" text-anchor="middle">起訴書/不起</text>
<text x="515.0" y="577" font-size="11.5" fill="#2a3a49" text-anchor="middle">訴書PDF</text>
<path d="M447,356 L435,356 L435,456 L447,456" fill="none" stroke="#5a6b7b" stroke-width="1.4"/>
<text x="451" y="375.0" font-size="11.5" fill="#3a4a59">檢察官執行列印/儲存時</text>
<text x="451" y="389.0" font-size="11.5" fill="#3a4a59">,由書類系統產製書類P</text>
<text x="451" y="403.0" font-size="11.5" fill="#3a4a59">DF拋轉至SFTP;A</text>
<text x="451" y="417.0" font-size="11.5" fill="#3a4a59">I智慧輔助系統再以批次</text>
<text x="451" y="431.0" font-size="11.5" fill="#3a4a59">方式定時撈取判讀(非即</text>
<text x="451" y="445.0" font-size="11.5" fill="#3a4a59">時呼叫)</text>
<path d="M952,628 L952,664 A28.0,7 0 0 0 1008,664 L1008,628" fill="#ffffff" stroke="#5a6b7b" stroke-width="1.4"/>
<ellipse cx="980.0" cy="628" rx="28.0" ry="7" fill="#ffffff" stroke="#5a6b7b" stroke-width="1.4"/>
<text x="980.0" y="683" font-size="11.5" fill="#2a3a49" text-anchor="middle">書類PDF</text>
<path d="M912,737 L900,737 L900,795 L912,795" fill="none" stroke="#5a6b7b" stroke-width="1.4"/>
<text x="916" y="756.0" font-size="11.5" fill="#3a4a59">書類系統拋轉;檔名：包</text>
<text x="916" y="770.0" font-size="11.5" fill="#3a4a59">含偵字案號&gt;&gt;需要請宏</text>
<text x="916" y="784.0" font-size="11.5" fill="#3a4a59">碁提供標號邏輯</text>
<circle cx="1445.0" cy="526.0" r="19.0" fill="#ffffff" stroke="#5a6b7b" stroke-width="1.8"/>
<circle cx="1445.0" cy="526.0" r="10" fill="none" stroke="#5a6b7b" stroke-width="1.4"/>
<path d="M1445.0,526.0 L1445.0,519.0 M1445.0,526.0 L1450.0,528.0" stroke="#5a6b7b" stroke-width="1.4" fill="none"/>
<text x="1445.0" y="557" font-size="11.5" fill="#2a3a49" text-anchor="middle">定時批次排程</text>
<rect x="1366" y="613" width="158" height="66" rx="8" fill="#dae8fc" stroke="#6c8ebf" stroke-width="1.5"/>
<circle cx="1378" cy="624" r="4" fill="none" stroke="#6c8ebf" stroke-width="1.3"/>
<path d="M1378,624 l6.5,0.0 M1378,624 l-6.5,0.0 M1378,624 l0.0,6.5 M1378,624 l0.0,-6.5 M1378,624 l4.5954999999999995,4.5954999999999995 M1378,624 l-4.5954999999999995,4.5954999999999995 M1378,624 l4.5954999999999995,-4.5954999999999995 M1378,624 l-4.5954999999999995,-4.5954999999999995 " stroke="#6c8ebf" stroke-width="1.3" fill="none"/>
<text x="1445.0" y="642.5" font-size="12.5" fill="#1f2d3d" text-anchor="middle">批次撈取小腦SFTP之</text>
<text x="1445.0" y="657.5" font-size="12.5" fill="#1f2d3d" text-anchor="middle">書類PDF</text>
<rect x="1366" y="733" width="158" height="66" rx="8" fill="#dae8fc" stroke="#6c8ebf" stroke-width="1.5"/>
<circle cx="1378" cy="744" r="4" fill="none" stroke="#6c8ebf" stroke-width="1.3"/>
<path d="M1378,744 l6.5,0.0 M1378,744 l-6.5,0.0 M1378,744 l0.0,6.5 M1378,744 l0.0,-6.5 M1378,744 l4.5954999999999995,4.5954999999999995 M1378,744 l-4.5954999999999995,4.5954999999999995 M1378,744 l4.5954999999999995,-4.5954999999999995 M1378,744 l-4.5954999999999995,-4.5954999999999995 " stroke="#6c8ebf" stroke-width="1.3" fill="none"/>
<text x="1445.0" y="762.5" font-size="12.5" fill="#1f2d3d" text-anchor="middle">AI智慧輔助系統判讀五</text>
<text x="1445.0" y="777.5" font-size="12.5" fill="#1f2d3d" text-anchor="middle">類統計欄位</text>
<rect x="1366" y="853" width="158" height="66" rx="8" fill="#dae8fc" stroke="#6c8ebf" stroke-width="1.5"/>
<circle cx="1378" cy="864" r="4" fill="none" stroke="#6c8ebf" stroke-width="1.3"/>
<path d="M1378,864 l6.5,0.0 M1378,864 l-6.5,0.0 M1378,864 l0.0,6.5 M1378,864 l0.0,-6.5 M1378,864 l4.5954999999999995,4.5954999999999995 M1378,864 l-4.5954999999999995,4.5954999999999995 M1378,864 l4.5954999999999995,-4.5954999999999995 M1378,864 l-4.5954999999999995,-4.5954999999999995 " stroke="#6c8ebf" stroke-width="1.3" fill="none"/>
<text x="1445.0" y="875.0" font-size="12.5" fill="#1f2d3d" text-anchor="middle">整理判讀結果並呼叫刑案</text>
<text x="1445.0" y="890.0" font-size="12.5" fill="#1f2d3d" text-anchor="middle">管理系統API存入暫存</text>
<text x="1445.0" y="905.0" font-size="12.5" fill="#1f2d3d" text-anchor="middle">檔</text>
<circle cx="1445.0" cy="1006.0" r="19.0" fill="#f8cecc" stroke="#b85450" stroke-width="3.2"/>
<text x="1445.0" y="1037" font-size="11.5" fill="#2a3a49" text-anchor="middle">判讀結果寫入</text>
<text x="1445.0" y="1050" font-size="11.5" fill="#2a3a49" text-anchor="middle">暫存區</text>
<path d="M1654,860 L1686,860 L1696,870 L1696,912 L1654,912 Z" fill="#ffffff" stroke="#5a6b7b" stroke-width="1.4"/>
<path d="M1686,860 L1686,870 L1696,870" fill="none" stroke="#5a6b7b" stroke-width="1.4"/>
<path d="M1661,873 L1671,873 L1671,869 L1678,875 L1671,881 L1671,877 L1661,877 Z" fill="#5a6b7b" stroke="#5a6b7b" stroke-width="1.2"/>
<text x="1675.0" y="924" font-size="11.5" fill="#2a3a49" text-anchor="middle">欄位判讀結果</text>
<path d="M1607,702 L1595,702 L1595,830 L1607,830" fill="none" stroke="#5a6b7b" stroke-width="1.4"/>
<text x="1611" y="721.0" font-size="11.5" fill="#3a4a59">AI智慧輔助系統判讀完</text>
<text x="1611" y="735.0" font-size="11.5" fill="#3a4a59">個案欄位屬性後,直接呼</text>
<text x="1611" y="749.0" font-size="11.5" fill="#3a4a59">叫刑案管理系統API將</text>
<text x="1611" y="763.0" font-size="11.5" fill="#3a4a59">判讀結果寫入暫存區;使</text>
<text x="1611" y="777.0" font-size="11.5" fill="#3a4a59">用者於刑案管理系統點選</text>
<text x="1611" y="791.0" font-size="11.5" fill="#3a4a59">AI引用時,由系統自暫</text>
<text x="1611" y="805.0" font-size="11.5" fill="#3a4a59">存區讀取(RFP工項要</text>
<text x="1611" y="819.0" font-size="11.5" fill="#3a4a59">求API整合)</text>
<circle cx="1445.0" cy="166.0" r="19.0" fill="#ffffff" stroke="#5a6b7b" stroke-width="1.8"/>
<circle cx="1445.0" cy="166.0" r="10" fill="none" stroke="#5a6b7b" stroke-width="1.4"/>
<path d="M1445.0,166.0 L1445.0,159.0 M1445.0,166.0 L1450.0,168.0" stroke="#5a6b7b" stroke-width="1.4" fill="none"/>
<text x="1445.0" y="197" font-size="11.5" fill="#2a3a49" text-anchor="middle">每日排程</text>
<rect x="1366" y="253" width="158" height="66" rx="8" fill="#dae8fc" stroke="#6c8ebf" stroke-width="1.5"/>
<circle cx="1378" cy="264" r="4" fill="none" stroke="#6c8ebf" stroke-width="1.3"/>
<path d="M1378,264 l6.5,0.0 M1378,264 l-6.5,0.0 M1378,264 l0.0,6.5 M1378,264 l0.0,-6.5 M1378,264 l4.5954999999999995,4.5954999999999995 M1378,264 l-4.5954999999999995,4.5954999999999995 M1378,264 l4.5954999999999995,-4.5954999999999995 M1378,264 l-4.5954999999999995,-4.5954999999999995 " stroke="#6c8ebf" stroke-width="1.3" fill="none"/>
<text x="1445.0" y="282.5" font-size="12.5" fill="#1f2d3d" text-anchor="middle">至大腦SFTP下載部頒</text>
<text x="1445.0" y="297.5" font-size="12.5" fill="#1f2d3d" text-anchor="middle">代碼表與法條對照表</text>
<circle cx="1445.0" cy="406.0" r="19.0" fill="#f8cecc" stroke="#b85450" stroke-width="3.2"/>
<text x="1445.0" y="437" font-size="11.5" fill="#2a3a49" text-anchor="middle">完成</text>
<path d="M2112,268 L2112,304 A28.0,7 0 0 0 2168,304 L2168,268" fill="#ffffff" stroke="#5a6b7b" stroke-width="1.4"/>
<ellipse cx="2140.0" cy="268" rx="28.0" ry="7" fill="#ffffff" stroke="#5a6b7b" stroke-width="1.4"/>
<text x="2140.0" y="323" font-size="11.5" fill="#2a3a49" text-anchor="middle">部頒代碼表、</text>
<text x="2140.0" y="336" font-size="11.5" fill="#2a3a49" text-anchor="middle">法條對照表</text>
<circle cx="2605.0" cy="1006.0" r="19.0" fill="#f8cecc" stroke="#b85450" stroke-width="1.8"/>
<text x="2605.0" y="1037" font-size="11.5" fill="#2a3a49" text-anchor="middle">AI判讀結果</text>
<text x="2605.0" y="1050" font-size="11.5" fill="#2a3a49" text-anchor="middle">已寫入暫存區</text>
<rect x="2526" y="1093" width="158" height="66" rx="8" fill="#d5e8d4" stroke="#82b366" stroke-width="1.5"/>
<circle cx="2538" cy="1103" r="3.2" fill="none" stroke="#82b366" stroke-width="1.3"/>
<path d="M2533,1112 Q2538,1106 2543,1112" fill="none" stroke="#82b366" stroke-width="1.3"/>
<text x="2605.0" y="1130.0" font-size="12.5" fill="#1f2d3d" text-anchor="middle">登入刑案管理系統</text>
<rect x="2526" y="1213" width="158" height="66" rx="8" fill="#d5e8d4" stroke="#82b366" stroke-width="1.5"/>
<circle cx="2538" cy="1223" r="3.2" fill="none" stroke="#82b366" stroke-width="1.3"/>
<path d="M2533,1232 Q2538,1226 2543,1232" fill="none" stroke="#82b366" stroke-width="1.3"/>
<text x="2605.0" y="1250.0" font-size="12.5" fill="#1f2d3d" text-anchor="middle">進入偵查類案件查詢個案</text>
<rect x="2526" y="1333" width="158" height="66" rx="8" fill="#d5e8d4" stroke="#82b366" stroke-width="1.5"/>
<circle cx="2538" cy="1343" r="3.2" fill="none" stroke="#82b366" stroke-width="1.3"/>
<path d="M2533,1352 Q2538,1346 2543,1352" fill="none" stroke="#82b366" stroke-width="1.3"/>
<text x="2605.0" y="1370.0" font-size="12.5" fill="#1f2d3d" text-anchor="middle">點選「AI引用」按鈕</text>
<rect x="2526" y="1453" width="158" height="66" rx="8" fill="#dae8fc" stroke="#6c8ebf" stroke-width="1.5"/>
<circle cx="2538" cy="1464" r="4" fill="none" stroke="#6c8ebf" stroke-width="1.3"/>
<path d="M2538,1464 l6.5,0.0 M2538,1464 l-6.5,0.0 M2538,1464 l0.0,6.5 M2538,1464 l0.0,-6.5 M2538,1464 l4.5954999999999995,4.5954999999999995 M2538,1464 l-4.5954999999999995,4.5954999999999995 M2538,1464 l4.5954999999999995,-4.5954999999999995 M2538,1464 l-4.5954999999999995,-4.5954999999999995 " stroke="#6c8ebf" stroke-width="1.3" fill="none"/>
<text x="2605.0" y="1482.5" font-size="12.5" fill="#1f2d3d" text-anchor="middle">自暫存區讀取AI判讀結</text>
<text x="2605.0" y="1497.5" font-size="12.5" fill="#1f2d3d" text-anchor="middle">果</text>
<rect x="2526" y="1573" width="158" height="66" rx="8" fill="#d5e8d4" stroke="#82b366" stroke-width="1.5"/>
<circle cx="2538" cy="1583" r="3.2" fill="none" stroke="#82b366" stroke-width="1.3"/>
<path d="M2533,1592 Q2538,1586 2543,1592" fill="none" stroke="#82b366" stroke-width="1.3"/>
<text x="2605.0" y="1602.5" font-size="12.5" fill="#1f2d3d" text-anchor="middle">檢視判讀資料是否符合需</text>
<text x="2605.0" y="1617.5" font-size="12.5" fill="#1f2d3d" text-anchor="middle">求</text>
<polygon points="2605.0,1700 2631,1726.0 2605.0,1752 2579,1726.0" fill="#dae8fc" stroke="#6c8ebf" stroke-width="1.6"/>
<path d="M2598.0,1719.0 L2612.0,1733.0 M2598.0,1733.0 L2612.0,1719.0" stroke="#6c8ebf" stroke-width="2.6" fill="none"/>
<text x="2605.0" y="1764" font-size="11.5" fill="#2a3a49" text-anchor="middle">引用?</text>
<circle cx="2605.0" cy="1966.0" r="19.0" fill="#f8cecc" stroke="#b85450" stroke-width="3.2"/>
<text x="2605.0" y="1997" font-size="11.5" fill="#2a3a49" text-anchor="middle">結束</text>
<rect x="2756" y="1813" width="158" height="66" rx="8" fill="#d5e8d4" stroke="#82b366" stroke-width="1.5"/>
<circle cx="2768" cy="1823" r="3.2" fill="none" stroke="#82b366" stroke-width="1.3"/>
<path d="M2763,1832 Q2768,1826 2773,1832" fill="none" stroke="#82b366" stroke-width="1.3"/>
<text x="2835.0" y="1842.5" font-size="12.5" fill="#1f2d3d" text-anchor="middle">點選引用,欄位資訊存入</text>
<text x="2835.0" y="1857.5" font-size="12.5" fill="#1f2d3d" text-anchor="middle">刑案管理系統</text>
<path d="M2767,1577 L2755,1577 L2755,1635 L2767,1635" fill="none" stroke="#5a6b7b" stroke-width="1.4"/>
<text x="2771" y="1596.0" font-size="11.5" fill="#3a4a59">引用→否時:後續由統計</text>
<text x="2771" y="1610.0" font-size="11.5" fill="#3a4a59">處收集不符資訊,回饋進</text>
<text x="2771" y="1624.0" font-size="11.5" fill="#3a4a59">行判讀邏輯調整</text>
</svg>