<svg xmlns="http://www.w3.org/2000/svg" role="img" aria-label="數位卷證標籤製作工作流程圖(資安優先方案) V09.02" viewBox="90 7 1750 2283" width="1750" height="2283" data-pad="capped" font-family="Microsoft JhengHei, PingFang TC, Noto Sans CJK TC, sans-serif">
<title>數位卷證標籤製作工作流程圖(資安優先方案) V09.02</title>
<rect x="90" y="7" width="1750" height="2283" fill="#ffffff"/>
<text x="140" y="50" font-size="19" font-weight="bold" fill="#1f2d3d">數位卷證標籤製作工作流程圖(資安優先方案) V09.02</text>
<defs><marker id="arr" markerWidth="9" markerHeight="9" refX="7" refY="3" orient="auto" markerUnits="strokeWidth"><path d="M0,0 L8,3 L0,6 Z" fill="#5a6b7b"/></marker><marker id="mfarr" markerWidth="11" markerHeight="11" refX="8" refY="4" orient="auto" markerUnits="strokeWidth"><path d="M0,0 L8,4 L0,8" fill="none" stroke="#6b7b8b" stroke-width="1.3"/></marker><marker id="mfdot" markerWidth="10" markerHeight="10" refX="5" refY="5" orient="auto" markerUnits="strokeWidth"><circle cx="5" cy="5" r="3.2" fill="#fff" stroke="#6b7b8b" stroke-width="1.3"/></marker></defs>
<rect x="140" y="70" width="490" height="2196" fill="none" stroke="#9aa7b4" stroke-width="1.5"/>
<rect x="140" y="70" width="30" height="2196" fill="#e7edf3" stroke="#9aa7b4"/>
<text x="158" y="1168.0" font-size="13" font-weight="bold" fill="#3a4a59" text-anchor="middle" transform="rotate(-90 158 1168.0)">數位卷證系統</text>
<rect x="170" y="70" width="460" height="2196" fill="none" stroke="#cdd6df"/>
<rect x="170" y="70" width="460" height="36" fill="#eef2f6" stroke="#cdd6df"/>
<text x="400.0" y="93" font-size="13.5" font-weight="bold" fill="#3a4a59" text-anchor="middle">檢察事務官</text>
<rect x="720" y="70" width="490" height="2196" fill="none" stroke="#9aa7b4" stroke-width="1.5"/>
<rect x="720" y="70" width="30" height="2196" fill="#e7edf3" stroke="#9aa7b4"/>
<text x="738" y="1168.0" font-size="13" font-weight="bold" fill="#3a4a59" text-anchor="middle" transform="rotate(-90 738 1168.0)">AI智慧輔助系統</text>
<rect x="750" y="70" width="460" height="2196" fill="none" stroke="#cdd6df"/>
<rect x="750" y="70" width="460" height="36" fill="#eef2f6" stroke="#cdd6df"/>
<text x="980.0" y="93" font-size="13.5" font-weight="bold" fill="#3a4a59" text-anchor="middle">系統</text>
<rect x="1300" y="70" width="490" height="2196" fill="none" stroke="#9aa7b4" stroke-width="1.5"/>
<rect x="1300" y="70" width="30" height="2196" fill="#e7edf3" stroke="#9aa7b4"/>
<text x="1318" y="1168.0" font-size="13" font-weight="bold" fill="#3a4a59" text-anchor="middle" transform="rotate(-90 1318 1168.0)">卷證交付</text>
<rect x="1330" y="70" width="460" height="2196" fill="none" stroke="#cdd6df"/>
<rect x="1330" y="70" width="460" height="36" fill="#eef2f6" stroke="#cdd6df"/>
<text x="1560.0" y="93" font-size="13.5" font-weight="bold" fill="#3a4a59" text-anchor="middle">檢察官</text>
<path d="M285,185 L285,253" fill="none" stroke="#5a6b7b" stroke-width="1.6" marker-end="url(#arr)"/>
<path d="M285,319 L285,373" fill="none" stroke="#5a6b7b" stroke-width="1.6" marker-end="url(#arr)"/>
<path d="M285,439 L285,507" fill="none" stroke="#5a6b7b" stroke-width="1.6" marker-end="url(#arr)"/>
<path d="M285,1385 L285,1453" fill="none" stroke="#5a6b7b" stroke-width="1.6" marker-end="url(#arr)"/>
<path d="M285,1519 L285,1580" fill="none" stroke="#5a6b7b" stroke-width="1.6" marker-end="url(#arr)"/>
<path d="M285,1632 L285,1813" fill="none" stroke="#5a6b7b" stroke-width="1.6" marker-end="url(#arr)"/>
<rect x="261.0" y="1643" width="68" height="21" fill="#fff" stroke="#cdd6df" rx="3"/>
<text x="295.0" y="1658" font-size="12.5" fill="#b0451f" text-anchor="middle" font-weight="bold">符合→是</text>
<path d="M311,1606 L515,1606 L515,1693" fill="none" stroke="#5a6b7b" stroke-width="1.6" marker-end="url(#arr)"/>
<rect x="409.6" y="1587.0" width="68" height="21" fill="#fff" stroke="#cdd6df" rx="3"/>
<text x="443.6" y="1602.0" font-size="12.5" fill="#b0451f" text-anchor="middle" font-weight="bold">符合→否</text>
<path d="M515,1759 L515,1846 L364,1846" fill="none" stroke="#5a6b7b" stroke-width="1.6" marker-end="url(#arr)"/>
<path d="M285,1879 L285,1947" fill="none" stroke="#5a6b7b" stroke-width="1.6" marker-end="url(#arr)"/>
<path d="M435,286 L364,286" fill="none" stroke="#8a99a8" stroke-width="1.4" stroke-dasharray="2,4"/>
<path d="M865,545 L865,613" fill="none" stroke="#5a6b7b" stroke-width="1.6" marker-end="url(#arr)"/>
<path d="M865,679 L865,733" fill="none" stroke="#5a6b7b" stroke-width="1.6" marker-end="url(#arr)"/>
<path d="M865,799 L865,853" fill="none" stroke="#5a6b7b" stroke-width="1.6" marker-end="url(#arr)"/>
<path d="M865,919 L865,973" fill="none" stroke="#5a6b7b" stroke-width="1.6" marker-end="url(#arr)"/>
<path d="M865,1039 L865,1093" fill="none" stroke="#5a6b7b" stroke-width="1.6" marker-end="url(#arr)"/>
<path d="M865,1159 L865,1213" fill="none" stroke="#5a6b7b" stroke-width="1.6" marker-end="url(#arr)"/>
<path d="M865,1279 L865,1347" fill="none" stroke="#5a6b7b" stroke-width="1.6" marker-end="url(#arr)"/>
<path d="M944,1006 L1074,1006" fill="none" stroke="#8a99a8" stroke-width="1.4" stroke-dasharray="2,4"/>
<path d="M1560,1985 L1560,2053" fill="none" stroke="#5a6b7b" stroke-width="1.6" marker-end="url(#arr)"/>
<path d="M1560,2119 L1560,2187" fill="none" stroke="#5a6b7b" stroke-width="1.6" marker-end="url(#arr)"/>
<polyline points="304,526 575,526 575,526 846,526" fill="none" stroke="#6b7b8b" stroke-width="1.4" stroke-dasharray="6 4" marker-start="url(#mfdot)" marker-end="url(#mfarr)"/>
<rect x="341.15" y="510.0" width="16" height="11" fill="#ffffff" stroke="#6b7b8b" stroke-width="1.2"/>
<path d="M341.15,510.0 L349.15,516.0 L357.15,510.0" fill="none" stroke="#6b7b8b" stroke-width="1.2"/>
<rect x="357.15" y="508.0" width="246" height="19" fill="#fff" stroke="#d7dee6" rx="3"/>
<text x="480.15" y="522.0" font-size="11.5" fill="#52606d" text-anchor="middle">卷證PDF送AI進行OCR與標籤識別</text>
<polyline points="846,1366 575,1366 575,1366 304,1366" fill="none" stroke="#6b7b8b" stroke-width="1.4" stroke-dasharray="6 4" marker-start="url(#mfdot)" marker-end="url(#mfarr)"/>
<rect x="556.85" y="1350.0" width="16" height="11" fill="#ffffff" stroke="#6b7b8b" stroke-width="1.2"/>
<path d="M556.85,1350.0 L564.85,1356.0 L572.85,1350.0" fill="none" stroke="#6b7b8b" stroke-width="1.2"/>
<rect x="572.85" y="1348.0" width="194" height="19" fill="#fff" stroke="#d7dee6" rx="3"/>
<text x="669.85" y="1362.0" font-size="11.5" fill="#52606d" text-anchor="middle">標籤識別結果回傳數位卷證系統</text>
<polyline points="304,1966 922,1966 922,1966 1541,1966" fill="none" stroke="#6b7b8b" stroke-width="1.4" stroke-dasharray="6 4" marker-start="url(#mfdot)" marker-end="url(#mfarr)"/>
<rect x="612.5250000000001" y="1950.0" width="16" height="11" fill="#ffffff" stroke="#6b7b8b" stroke-width="1.2"/>
<path d="M612.5250000000001,1950.0 L620.5250000000001,1956.0 L628.5250000000001,1950.0" fill="none" stroke="#6b7b8b" stroke-width="1.2"/>
<rect x="628.5250000000001" y="1948.0" width="155" height="19" fill="#fff" stroke="#d7dee6" rx="3"/>
<text x="706.0250000000001" y="1962.0" font-size="11.5" fill="#52606d" text-anchor="middle">卷證已存檔,通知可下載</text>
<circle cx="285.0" cy="166.0" r="19.0" fill="#f8cecc" stroke="#b85450" stroke-width="1.8"/>
<text x="285.0" y="197" font-size="11.5" fill="#2a3a49" text-anchor="middle">開始</text>
<rect x="206" y="253" width="158" height="66" rx="8" fill="#dae8fc" stroke="#6c8ebf" stroke-width="1.5"/>
<circle cx="218" cy="264" r="4" fill="none" stroke="#6c8ebf" stroke-width="1.3"/>
<path d="M218,264 l6.5,0.0 M218,264 l-6.5,0.0 M218,264 l0.0,6.5 M218,264 l0.0,-6.5 M218,264 l4.5954999999999995,4.5954999999999995 M218,264 l-4.5954999999999995,4.5954999999999995 M218,264 l4.5954999999999995,-4.5954999999999995 M218,264 l-4.5954999999999995,-4.5954999999999995 " stroke="#6c8ebf" stroke-width="1.3" fill="none"/>
<text x="285.0" y="282.5" font-size="12.5" fill="#1f2d3d" text-anchor="middle">取得新上傳之數位卷證P</text>
<text x="285.0" y="297.5" font-size="12.5" fill="#1f2d3d" text-anchor="middle">DF</text>
<rect x="206" y="373" width="158" height="66" rx="8" fill="#dae8fc" stroke="#6c8ebf" stroke-width="1.5"/>
<circle cx="218" cy="384" r="4" fill="none" stroke="#6c8ebf" stroke-width="1.3"/>
<path d="M218,384 l6.5,0.0 M218,384 l-6.5,0.0 M218,384 l0.0,6.5 M218,384 l0.0,-6.5 M218,384 l4.5954999999999995,4.5954999999999995 M218,384 l-4.5954999999999995,4.5954999999999995 M218,384 l4.5954999999999995,-4.5954999999999995 M218,384 l-4.5954999999999995,-4.5954999999999995 " stroke="#6c8ebf" stroke-width="1.3" fill="none"/>
<text x="285.0" y="402.5" font-size="12.5" fill="#1f2d3d" text-anchor="middle">將卷證PDF傳送至AI</text>
<text x="285.0" y="417.5" font-size="12.5" fill="#1f2d3d" text-anchor="middle">智慧輔助系統</text>
<circle cx="285.0" cy="526.0" r="19.0" fill="#f8cecc" stroke="#b85450" stroke-width="3.2"/>
<text x="285.0" y="557" font-size="11.5" fill="#2a3a49" text-anchor="middle">送AI進行O</text>
<text x="285.0" y="570" font-size="11.5" fill="#2a3a49" text-anchor="middle">CR與標籤識</text>
<text x="285.0" y="583" font-size="11.5" fill="#2a3a49" text-anchor="middle">別</text>
<path d="M447,201 L435,201 L435,371 L447,371" fill="none" stroke="#5a6b7b" stroke-width="1.4"/>
<text x="451" y="220.0" font-size="11.5" fill="#3a4a59">前段全自動、無人工介入</text>
<text x="451" y="234.0" font-size="11.5" fill="#3a4a59">:當其他使用者上傳數位</text>
<text x="451" y="248.0" font-size="11.5" fill="#3a4a59">卷證,數位卷證系統取得</text>
<text x="451" y="262.0" font-size="11.5" fill="#3a4a59">新卷證時即自動將PDF</text>
<text x="451" y="276.0" font-size="11.5" fill="#3a4a59">送AI智慧輔助系統進行</text>
<text x="451" y="290.0" font-size="11.5" fill="#3a4a59">OCR與標籤識別;結果</text>
<text x="451" y="304.0" font-size="11.5" fill="#3a4a59">回傳後標籤直接回存數位</text>
<text x="451" y="318.0" font-size="11.5" fill="#3a4a59">卷證系統,不另產出外部</text>
<text x="451" y="332.0" font-size="11.5" fill="#3a4a59">帶標籤PDF檔;卷證由</text>
<text x="451" y="346.0" font-size="11.5" fill="#3a4a59">檢察官於數位卷證系統內</text>
<text x="451" y="360.0" font-size="11.5" fill="#3a4a59">下載</text>
<circle cx="285.0" cy="1366.0" r="19.0" fill="#f8cecc" stroke="#b85450" stroke-width="1.8"/>
<text x="285.0" y="1397" font-size="11.5" fill="#2a3a49" text-anchor="middle">AI回傳標籤</text>
<text x="285.0" y="1410" font-size="11.5" fill="#2a3a49" text-anchor="middle">識別結果</text>
<rect x="206" y="1453" width="158" height="66" rx="8" fill="#d5e8d4" stroke="#82b366" stroke-width="1.5"/>
<circle cx="218" cy="1463" r="3.2" fill="none" stroke="#82b366" stroke-width="1.3"/>
<path d="M213,1472 Q218,1466 223,1472" fill="none" stroke="#82b366" stroke-width="1.3"/>
<text x="285.0" y="1490.0" font-size="12.5" fill="#1f2d3d" text-anchor="middle">檢視標籤是否符合需求</text>
<polygon points="285.0,1580 311,1606.0 285.0,1632 259,1606.0" fill="#dae8fc" stroke="#6c8ebf" stroke-width="1.6"/>
<path d="M278.0,1599.0 L292.0,1613.0 M278.0,1613.0 L292.0,1599.0" stroke="#6c8ebf" stroke-width="2.6" fill="none"/>
<text x="285.0" y="1644" font-size="11.5" fill="#2a3a49" text-anchor="middle">符合?</text>
<rect x="206" y="1813" width="158" height="66" rx="8" fill="#dae8fc" stroke="#6c8ebf" stroke-width="1.5"/>
<circle cx="218" cy="1824" r="4" fill="none" stroke="#6c8ebf" stroke-width="1.3"/>
<path d="M218,1824 l6.5,0.0 M218,1824 l-6.5,0.0 M218,1824 l0.0,6.5 M218,1824 l0.0,-6.5 M218,1824 l4.5954999999999995,4.5954999999999995 M218,1824 l-4.5954999999999995,4.5954999999999995 M218,1824 l4.5954999999999995,-4.5954999999999995 M218,1824 l-4.5954999999999995,-4.5954999999999995 " stroke="#6c8ebf" stroke-width="1.3" fill="none"/>
<text x="285.0" y="1842.5" font-size="12.5" fill="#1f2d3d" text-anchor="middle">於數位卷證系統將檔案存</text>
<text x="285.0" y="1857.5" font-size="12.5" fill="#1f2d3d" text-anchor="middle">檔</text>
<circle cx="285.0" cy="1966.0" r="19.0" fill="#f8cecc" stroke="#b85450" stroke-width="3.2"/>
<text x="285.0" y="1997" font-size="11.5" fill="#2a3a49" text-anchor="middle">標籤存檔完成</text>
<rect x="436" y="1693" width="158" height="66" rx="8" fill="#d5e8d4" stroke="#82b366" stroke-width="1.5"/>
<circle cx="448" cy="1703" r="3.2" fill="none" stroke="#82b366" stroke-width="1.3"/>
<path d="M443,1712 Q448,1706 453,1712" fill="none" stroke="#82b366" stroke-width="1.3"/>
<text x="515.0" y="1730.0" font-size="12.5" fill="#1f2d3d" text-anchor="middle">人工調整標籤</text>
<circle cx="865.0" cy="526.0" r="19.0" fill="#f8cecc" stroke="#b85450" stroke-width="1.8"/>
<text x="865.0" y="557" font-size="11.5" fill="#2a3a49" text-anchor="middle">接收卷證PD</text>
<text x="865.0" y="570" font-size="11.5" fill="#2a3a49" text-anchor="middle">F</text>
<rect x="786" y="613" width="158" height="66" rx="8" fill="#dae8fc" stroke="#6c8ebf" stroke-width="1.5"/>
<circle cx="798" cy="624" r="4" fill="none" stroke="#6c8ebf" stroke-width="1.3"/>
<path d="M798,624 l6.5,0.0 M798,624 l-6.5,0.0 M798,624 l0.0,6.5 M798,624 l0.0,-6.5 M798,624 l4.5954999999999995,4.5954999999999995 M798,624 l-4.5954999999999995,4.5954999999999995 M798,624 l4.5954999999999995,-4.5954999999999995 M798,624 l-4.5954999999999995,-4.5954999999999995 " stroke="#6c8ebf" stroke-width="1.3" fill="none"/>
<text x="865.0" y="650.0" font-size="12.5" fill="#1f2d3d" text-anchor="middle">執行OCR辨識</text>
<rect x="786" y="733" width="158" height="66" rx="8" fill="#dae8fc" stroke="#6c8ebf" stroke-width="1.5"/>
<circle cx="798" cy="744" r="4" fill="none" stroke="#6c8ebf" stroke-width="1.3"/>
<path d="M798,744 l6.5,0.0 M798,744 l-6.5,0.0 M798,744 l0.0,6.5 M798,744 l0.0,-6.5 M798,744 l4.5954999999999995,4.5954999999999995 M798,744 l-4.5954999999999995,4.5954999999999995 M798,744 l4.5954999999999995,-4.5954999999999995 M798,744 l-4.5954999999999995,-4.5954999999999995 " stroke="#6c8ebf" stroke-width="1.3" fill="none"/>
<text x="865.0" y="762.5" font-size="12.5" fill="#1f2d3d" text-anchor="middle">卷證類型辨識與關鍵資訊</text>
<text x="865.0" y="777.5" font-size="12.5" fill="#1f2d3d" text-anchor="middle">擷取</text>
<rect x="786" y="853" width="158" height="66" rx="8" fill="#dae8fc" stroke="#6c8ebf" stroke-width="1.5"/>
<circle cx="798" cy="864" r="4" fill="none" stroke="#6c8ebf" stroke-width="1.3"/>
<path d="M798,864 l6.5,0.0 M798,864 l-6.5,0.0 M798,864 l0.0,6.5 M798,864 l0.0,-6.5 M798,864 l4.5954999999999995,4.5954999999999995 M798,864 l-4.5954999999999995,4.5954999999999995 M798,864 l4.5954999999999995,-4.5954999999999995 M798,864 l-4.5954999999999995,-4.5954999999999995 " stroke="#6c8ebf" stroke-width="1.3" fill="none"/>
<text x="865.0" y="890.0" font-size="12.5" fill="#1f2d3d" text-anchor="middle">證據標題自動摘要</text>
<rect x="786" y="973" width="158" height="66" rx="8" fill="#dae8fc" stroke="#6c8ebf" stroke-width="1.5"/>
<circle cx="798" cy="984" r="4" fill="none" stroke="#6c8ebf" stroke-width="1.3"/>
<path d="M798,984 l6.5,0.0 M798,984 l-6.5,0.0 M798,984 l0.0,6.5 M798,984 l0.0,-6.5 M798,984 l4.5954999999999995,4.5954999999999995 M798,984 l-4.5954999999999995,4.5954999999999995 M798,984 l4.5954999999999995,-4.5954999999999995 M798,984 l-4.5954999999999995,-4.5954999999999995 " stroke="#6c8ebf" stroke-width="1.3" fill="none"/>
<text x="865.0" y="1010.0" font-size="12.5" fill="#1f2d3d" text-anchor="middle">頁數起迄判讀與分段標記</text>
<rect x="786" y="1093" width="158" height="66" rx="8" fill="#dae8fc" stroke="#6c8ebf" stroke-width="1.5"/>
<circle cx="798" cy="1104" r="4" fill="none" stroke="#6c8ebf" stroke-width="1.3"/>
<path d="M798,1104 l6.5,0.0 M798,1104 l-6.5,0.0 M798,1104 l0.0,6.5 M798,1104 l0.0,-6.5 M798,1104 l4.5954999999999995,4.5954999999999995 M798,1104 l-4.5954999999999995,4.5954999999999995 M798,1104 l4.5954999999999995,-4.5954999999999995 M798,1104 l-4.5954999999999995,-4.5954999999999995 " stroke="#6c8ebf" stroke-width="1.3" fill="none"/>
<text x="865.0" y="1130.0" font-size="12.5" fill="#1f2d3d" text-anchor="middle">數位標籤識別與製作</text>
<rect x="786" y="1213" width="158" height="66" rx="8" fill="#dae8fc" stroke="#6c8ebf" stroke-width="1.5"/>
<circle cx="798" cy="1224" r="4" fill="none" stroke="#6c8ebf" stroke-width="1.3"/>
<path d="M798,1224 l6.5,0.0 M798,1224 l-6.5,0.0 M798,1224 l0.0,6.5 M798,1224 l0.0,-6.5 M798,1224 l4.5954999999999995,4.5954999999999995 M798,1224 l-4.5954999999999995,4.5954999999999995 M798,1224 l4.5954999999999995,-4.5954999999999995 M798,1224 l-4.5954999999999995,-4.5954999999999995 " stroke="#6c8ebf" stroke-width="1.3" fill="none"/>
<text x="865.0" y="1242.5" font-size="12.5" fill="#1f2d3d" text-anchor="middle">將標籤識別結果回傳數位</text>
<text x="865.0" y="1257.5" font-size="12.5" fill="#1f2d3d" text-anchor="middle">卷證系統</text>
<circle cx="865.0" cy="1366.0" r="19.0" fill="#f8cecc" stroke="#b85450" stroke-width="3.2"/>
<text x="865.0" y="1397" font-size="11.5" fill="#2a3a49" text-anchor="middle">回傳完成</text>
<path d="M1074,980 L1106,980 L1116,990 L1116,1032 L1074,1032 Z" fill="#ffffff" stroke="#5a6b7b" stroke-width="1.4"/>
<path d="M1106,980 L1106,990 L1116,990" fill="none" stroke="#5a6b7b" stroke-width="1.4"/>
<path d="M1081,993 L1091,993 L1091,989 L1098,995 L1091,1001 L1091,997 L1081,997 Z" fill="#5a6b7b" stroke="#5a6b7b" stroke-width="1.2"/>
<text x="1095.0" y="1044" font-size="11.5" fill="#2a3a49" text-anchor="middle">證據清單</text>
<circle cx="1560.0" cy="1966.0" r="19.0" fill="#f8cecc" stroke="#b85450" stroke-width="1.8"/>
<text x="1560.0" y="1997" font-size="11.5" fill="#2a3a49" text-anchor="middle">收到已存檔卷</text>
<text x="1560.0" y="2010" font-size="11.5" fill="#2a3a49" text-anchor="middle">證</text>
<rect x="1481" y="2053" width="158" height="66" rx="8" fill="#d5e8d4" stroke="#82b366" stroke-width="1.5"/>
<circle cx="1493" cy="2063" r="3.2" fill="none" stroke="#82b366" stroke-width="1.3"/>
<path d="M1488,2072 Q1493,2066 1498,2072" fill="none" stroke="#82b366" stroke-width="1.3"/>
<text x="1560.0" y="2090.0" font-size="12.5" fill="#1f2d3d" text-anchor="middle">於數位卷證系統下載卷證</text>
<circle cx="1560.0" cy="2206.0" r="19.0" fill="#f8cecc" stroke="#b85450" stroke-width="3.2"/>
<text x="1560.0" y="2237" font-size="11.5" fill="#2a3a49" text-anchor="middle">結束</text>
</svg>