<svg xmlns="http://www.w3.org/2000/svg" viewBox="-383 7 1996 2043" data-pad="capped" font-family="Microsoft JhengHei, PingFang TC, Noto Sans CJK TC, sans-serif">
<rect x="-383" y="7" width="1996" height="2043" fill="#ffffff"/>
<text x="140" y="50" font-size="19" font-weight="bold" fill="#1f2d3d">統計標籤判斷(偵查類)工作流程圖 V07.00</text>
<defs><marker id="arr" markerWidth="9" markerHeight="9" refX="7" refY="3" orient="auto" markerUnits="strokeWidth"><path d="M0,0 L8,3 L0,6 Z" fill="#5a6b7b"/></marker><marker id="mfarr" markerWidth="11" markerHeight="11" refX="8" refY="4" orient="auto" markerUnits="strokeWidth"><path d="M0,0 L8,4 L0,8" fill="none" stroke="#6b7b8b" stroke-width="1.3"/></marker><marker id="mfdot" markerWidth="10" markerHeight="10" refX="5" refY="5" orient="auto" markerUnits="strokeWidth"><circle cx="5" cy="5" r="3.2" fill="#fff" stroke="#6b7b8b" stroke-width="1.3"/></marker></defs>
<rect x="170" y="106" width="920" height="360" fill="#f2f8f2" fill-opacity="0.55" stroke="none"/>
<line x1="170" y1="466" x2="1090" y2="466" stroke="#6f9f78" stroke-width="1.2" stroke-dasharray="7 5"/>
<rect x="170" y="466" width="920" height="360" fill="#f6f4fb" fill-opacity="0.55" stroke="none"/>
<line x1="170" y1="826" x2="1090" y2="826" stroke="#8a7fb8" stroke-width="1.2" stroke-dasharray="7 5"/>
<rect x="170" y="826" width="920" height="1200" fill="#fdf6ec" fill-opacity="0.55" stroke="none"/>
<line x1="170" y1="2026" x2="1090" y2="2026" stroke="#c2955a" stroke-width="1.2" stroke-dasharray="7 5"/>
<rect x="140" y="70" width="950" height="1956" fill="none" stroke="#9aa7b4" stroke-width="1.5"/>
<rect x="140" y="70" width="30" height="36" fill="#eef2f6" stroke="#cdd6df"/>
<rect x="140" y="106" width="30" height="360" fill="#f2f8f2" stroke="#6f9f78" stroke-width="1"/>
<text x="159.0" y="286.0" font-size="12.5" font-weight="bold" fill="#6f9f78" text-anchor="middle" transform="rotate(-90 159.0 286.0)">書類生成系統</text>
<rect x="140" y="466" width="30" height="360" fill="#f6f4fb" stroke="#8a7fb8" stroke-width="1"/>
<text x="159.0" y="646.0" font-size="12.5" font-weight="bold" fill="#8a7fb8" text-anchor="middle" transform="rotate(-90 159.0 646.0)">波特玩系統</text>
<rect x="140" y="826" width="30" height="1200" fill="#fdf6ec" stroke="#c2955a" stroke-width="1"/>
<text x="159.0" y="1426.0" font-size="12.5" font-weight="bold" fill="#c2955a" text-anchor="middle" transform="rotate(-90 159.0 1426.0)">刑案管理系統</text>
<rect x="170" y="70" width="460" height="1956" fill="none" stroke="#cdd6df"/>
<rect x="170" y="70" width="460" height="36" fill="#eef2f6" stroke="#cdd6df"/>
<text x="400.0" y="93" font-size="13.5" font-weight="bold" fill="#3a4a59" text-anchor="middle">檢察官</text>
<rect x="630" y="70" width="460" height="1956" fill="none" stroke="#cdd6df"/>
<rect x="630" y="70" width="460" height="36" fill="#eef2f6" stroke="#cdd6df"/>
<text x="860.0" y="93" font-size="13.5" font-weight="bold" fill="#3a4a59" text-anchor="middle">刑案管理系統使用者</text>
<path d="M285,185 L285,253" fill="none" stroke="#5a6b7b" stroke-width="1.6" marker-end="url(#arr)"/>
<path d="M285,319 L285,373" fill="none" stroke="#5a6b7b" stroke-width="1.6" marker-end="url(#arr)"/>
<path d="M285,439 L285,493" fill="none" stroke="#5a6b7b" stroke-width="1.6" marker-end="url(#arr)"/>
<path d="M285,559 L285,613" fill="none" stroke="#5a6b7b" stroke-width="1.6" marker-end="url(#arr)"/>
<path d="M285,679 L285,733" fill="none" stroke="#5a6b7b" stroke-width="1.6" marker-end="url(#arr)"/>
<path d="M285,799 L285,886 L717,886" fill="none" stroke="#5a6b7b" stroke-width="1.6" marker-end="url(#arr)"/>
<path d="M745,911 L745,973" fill="none" stroke="#5a6b7b" stroke-width="1.6" marker-end="url(#arr)"/>
<path d="M745,1039 L745,1093" fill="none" stroke="#5a6b7b" stroke-width="1.6" marker-end="url(#arr)"/>
<path d="M745,1159 L745,1213" fill="none" stroke="#5a6b7b" stroke-width="1.6" marker-end="url(#arr)"/>
<path d="M745,1279 L745,1333" fill="none" stroke="#5a6b7b" stroke-width="1.6" marker-end="url(#arr)"/>
<path d="M745,1399 L745,1453" fill="none" stroke="#5a6b7b" stroke-width="1.6" marker-end="url(#arr)"/>
<path d="M745,1519 L745,1580" fill="none" stroke="#5a6b7b" stroke-width="1.6" marker-end="url(#arr)"/>
<path d="M745,1632 L745,1693" fill="none" stroke="#5a6b7b" stroke-width="1.6" marker-end="url(#arr)"/>
<rect x="721.0" y="1643" width="68" height="21" fill="#fff" stroke="#cdd6df" rx="3"/>
<text x="755.0" y="1658" font-size="12.5" fill="#b0451f" text-anchor="middle" font-weight="bold">符合→是</text>
<path d="M719,1606 L644,1606 L644,1846 L726,1846" fill="none" stroke="#5a6b7b" stroke-width="1.6" marker-end="url(#arr)"/>
<rect x="601.25" y="1587.0" width="138" height="21" fill="#fff" stroke="#cdd6df" rx="3"/>
<text x="670.25" y="1602.0" font-size="12.5" fill="#b0451f" text-anchor="middle" font-weight="bold">符合→否(不引用)</text>
<path d="M745,1759 L745,1827" fill="none" stroke="#5a6b7b" stroke-width="1.6" marker-end="url(#arr)"/>
<path d="M494,526 L364,526" fill="none" stroke="#8a99a8" stroke-width="1.4" stroke-dasharray="2,4"/>
<path d="M364,766 L494,766" fill="none" stroke="#8a99a8" stroke-width="1.4" stroke-dasharray="2,4"/>
<path d="M665,1966 L664,1966 L664,1846" fill="none" stroke="#8a99a8" stroke-width="1.4" stroke-dasharray="2,4"/>
<circle cx="285.0" cy="166.0" r="19.0" fill="#f8cecc" stroke="#b85450" stroke-width="1.8"/>
<text x="285.0" y="197" font-size="11.5" fill="#2a3a49" text-anchor="middle">開始</text>
<rect x="206" y="253" width="158" height="66" rx="8" fill="#d5e8d4" stroke="#82b366" stroke-width="1.5"/>
<circle cx="218" cy="263" r="3.2" fill="none" stroke="#82b366" stroke-width="1.3"/>
<path d="M213,272 Q218,266 223,272" fill="none" stroke="#82b366" stroke-width="1.3"/>
<text x="285.0" y="290.0" font-size="12.5" fill="#1f2d3d" text-anchor="middle">完成起訴書或不起訴書</text>
<rect x="206" y="373" width="158" height="66" rx="8" fill="#d5e8d4" stroke="#82b366" stroke-width="1.5"/>
<circle cx="218" cy="383" r="3.2" fill="none" stroke="#82b366" stroke-width="1.3"/>
<path d="M213,392 Q218,386 223,392" fill="none" stroke="#82b366" stroke-width="1.3"/>
<text x="285.0" y="410.0" font-size="12.5" fill="#1f2d3d" text-anchor="middle">執行列印或儲存</text>
<rect x="206" y="493" width="158" height="66" rx="8" fill="#dae8fc" stroke="#6c8ebf" stroke-width="1.5"/>
<circle cx="218" cy="504" r="4" fill="none" stroke="#6c8ebf" stroke-width="1.3"/>
<path d="M218,504 l6.5,0.0 M218,504 l-6.5,0.0 M218,504 l0.0,6.5 M218,504 l0.0,-6.5 M218,504 l4.5954999999999995,4.5954999999999995 M218,504 l-4.5954999999999995,4.5954999999999995 M218,504 l4.5954999999999995,-4.5954999999999995 M218,504 l-4.5954999999999995,-4.5954999999999995 " stroke="#6c8ebf" stroke-width="1.3" fill="none"/>
<text x="285.0" y="522.5" font-size="12.5" fill="#1f2d3d" text-anchor="middle">呼叫波特玩智慧判斷並傳</text>
<text x="285.0" y="537.5" font-size="12.5" fill="#1f2d3d" text-anchor="middle">送書類內文</text>
<rect x="206" y="613" width="158" height="66" rx="8" fill="#dae8fc" stroke="#6c8ebf" stroke-width="1.5"/>
<circle cx="218" cy="624" r="4" fill="none" stroke="#6c8ebf" stroke-width="1.3"/>
<path d="M218,624 l6.5,0.0 M218,624 l-6.5,0.0 M218,624 l0.0,6.5 M218,624 l0.0,-6.5 M218,624 l4.5954999999999995,4.5954999999999995 M218,624 l-4.5954999999999995,4.5954999999999995 M218,624 l4.5954999999999995,-4.5954999999999995 M218,624 l-4.5954999999999995,-4.5954999999999995 " stroke="#6c8ebf" stroke-width="1.3" fill="none"/>
<text x="285.0" y="650.0" font-size="12.5" fill="#1f2d3d" text-anchor="middle">波特玩判讀五類統計欄位</text>
<rect x="206" y="733" width="158" height="66" rx="8" fill="#dae8fc" stroke="#6c8ebf" stroke-width="1.5"/>
<circle cx="218" cy="744" r="4" fill="none" stroke="#6c8ebf" stroke-width="1.3"/>
<path d="M218,744 l6.5,0.0 M218,744 l-6.5,0.0 M218,744 l0.0,6.5 M218,744 l0.0,-6.5 M218,744 l4.5954999999999995,4.5954999999999995 M218,744 l-4.5954999999999995,4.5954999999999995 M218,744 l4.5954999999999995,-4.5954999999999995 M218,744 l-4.5954999999999995,-4.5954999999999995 " stroke="#6c8ebf" stroke-width="1.3" fill="none"/>
<text x="285.0" y="762.5" font-size="12.5" fill="#1f2d3d" text-anchor="middle">整理判讀結果並拋轉至S</text>
<text x="285.0" y="777.5" font-size="12.5" fill="#1f2d3d" text-anchor="middle">FTP</text>
<path d="M717,868 L717,904 A28.0,7 0 0 0 773,904 L773,868" fill="#ffffff" stroke="#5a6b7b" stroke-width="1.4"/>
<ellipse cx="745.0" cy="868" rx="28.0" ry="7" fill="#ffffff" stroke="#5a6b7b" stroke-width="1.4"/>
<text x="745.0" y="923" font-size="11.5" fill="#2a3a49" text-anchor="middle">SFTP</text>
<rect x="666" y="973" width="158" height="66" rx="8" fill="#d5e8d4" stroke="#82b366" stroke-width="1.5"/>
<circle cx="678" cy="983" r="3.2" fill="none" stroke="#82b366" stroke-width="1.3"/>
<path d="M673,992 Q678,986 683,992" fill="none" stroke="#82b366" stroke-width="1.3"/>
<text x="745.0" y="1010.0" font-size="12.5" fill="#1f2d3d" text-anchor="middle">登入刑案管理系統</text>
<rect x="666" y="1093" width="158" height="66" rx="8" fill="#d5e8d4" stroke="#82b366" stroke-width="1.5"/>
<circle cx="678" cy="1103" r="3.2" fill="none" stroke="#82b366" stroke-width="1.3"/>
<path d="M673,1112 Q678,1106 683,1112" fill="none" stroke="#82b366" stroke-width="1.3"/>
<text x="745.0" y="1130.0" font-size="12.5" fill="#1f2d3d" text-anchor="middle">進入偵查類案件查詢個案</text>
<rect x="666" y="1213" width="158" height="66" rx="8" fill="#d5e8d4" stroke="#82b366" stroke-width="1.5"/>
<circle cx="678" cy="1223" r="3.2" fill="none" stroke="#82b366" stroke-width="1.3"/>
<path d="M673,1232 Q678,1226 683,1232" fill="none" stroke="#82b366" stroke-width="1.3"/>
<text x="745.0" y="1250.0" font-size="12.5" fill="#1f2d3d" text-anchor="middle">點選「AI引用」按鈕</text>
<rect x="666" y="1333" width="158" height="66" rx="8" fill="#dae8fc" stroke="#6c8ebf" stroke-width="1.5"/>
<circle cx="678" cy="1344" r="4" fill="none" stroke="#6c8ebf" stroke-width="1.3"/>
<path d="M678,1344 l6.5,0.0 M678,1344 l-6.5,0.0 M678,1344 l0.0,6.5 M678,1344 l0.0,-6.5 M678,1344 l4.5954999999999995,4.5954999999999995 M678,1344 l-4.5954999999999995,4.5954999999999995 M678,1344 l4.5954999999999995,-4.5954999999999995 M678,1344 l-4.5954999999999995,-4.5954999999999995 " stroke="#6c8ebf" stroke-width="1.3" fill="none"/>
<text x="745.0" y="1370.0" font-size="12.5" fill="#1f2d3d" text-anchor="middle">帶出SFTP判讀資料</text>
<rect x="666" y="1453" width="158" height="66" rx="8" fill="#d5e8d4" stroke="#82b366" stroke-width="1.5"/>
<circle cx="678" cy="1463" r="3.2" fill="none" stroke="#82b366" stroke-width="1.3"/>
<path d="M673,1472 Q678,1466 683,1472" fill="none" stroke="#82b366" stroke-width="1.3"/>
<text x="745.0" y="1482.5" font-size="12.5" fill="#1f2d3d" text-anchor="middle">檢視判讀資料是否符合需</text>
<text x="745.0" y="1497.5" font-size="12.5" fill="#1f2d3d" text-anchor="middle">求</text>
<polygon points="745.0,1580 771,1606.0 745.0,1632 719,1606.0" fill="#dae8fc" stroke="#6c8ebf" stroke-width="1.6"/>
<text x="745.0" y="1610.0" font-size="11" fill="#1f2d3d" text-anchor="middle">符合?</text>
<rect x="666" y="1693" width="158" height="66" rx="8" fill="#d5e8d4" stroke="#82b366" stroke-width="1.5"/>
<circle cx="678" cy="1703" r="3.2" fill="none" stroke="#82b366" stroke-width="1.3"/>
<path d="M673,1712 Q678,1706 683,1712" fill="none" stroke="#82b366" stroke-width="1.3"/>
<text x="745.0" y="1722.5" font-size="12.5" fill="#1f2d3d" text-anchor="middle">點選引用,欄位資訊存入</text>
<text x="745.0" y="1737.5" font-size="12.5" fill="#1f2d3d" text-anchor="middle">刑案管理系統</text>
<circle cx="745.0" cy="1846.0" r="19.0" fill="#f8cecc" stroke="#b85450" stroke-width="3.2"/>
<text x="745.0" y="1877" font-size="11.5" fill="#2a3a49" text-anchor="middle">結束</text>
<path d="M494,500 L526,500 L536,510 L536,552 L494,552 Z" fill="#ffffff" stroke="#5a6b7b" stroke-width="1.4"/>
<path d="M526,500 L526,510 L536,510" fill="none" stroke="#5a6b7b" stroke-width="1.4"/>
<path d="M501,513 L511,513 L511,509 L518,515 L511,521 L511,517 L501,517 Z" fill="none" stroke="#5a6b7b" stroke-width="1.2"/>
<text x="515.0" y="564" font-size="11.5" fill="#2a3a49" text-anchor="middle">起訴書/不起</text>
<text x="515.0" y="577" font-size="11.5" fill="#2a3a49" text-anchor="middle">訴書內文</text>
<path d="M494,740 L526,740 L536,750 L536,792 L494,792 Z" fill="#ffffff" stroke="#5a6b7b" stroke-width="1.4"/>
<path d="M526,740 L526,750 L536,750" fill="none" stroke="#5a6b7b" stroke-width="1.4"/>
<path d="M501,753 L511,753 L511,749 L518,755 L511,761 L511,757 L501,757 Z" fill="#5a6b7b" stroke="#5a6b7b" stroke-width="1.2"/>
<text x="515.0" y="804" font-size="11.5" fill="#2a3a49" text-anchor="middle">欄位判讀結果</text>
<path d="M677,1937 L665,1937 L665,1995 L677,1995" fill="none" stroke="#5a6b7b" stroke-width="1.4"/>
<text x="681" y="1956.0" font-size="11.5" fill="#3a4a59">符合→否時:後續由統計</text>
<text x="681" y="1970.0" font-size="11.5" fill="#3a4a59">處收集不符資訊,回饋進</text>
<text x="681" y="1984.0" font-size="11.5" fill="#3a4a59">行判讀邏輯調整</text>
</svg>